<svg width="2149" height="603" viewBox="0 0 2149 603" fill="none" xmlns="http://www.w3.org/2000/svg">
<g clip-path="url(#clip0_1044_3458)" filter="url(#filter0_i_1044_3458)">
<path d="M169.824 266.221C169.824 243.919 174.216 221.836 182.751 201.232C191.285 180.628 203.794 161.907 219.564 146.137C235.333 130.368 254.055 117.859 274.659 109.324C295.263 100.79 317.346 96.397 339.648 96.397L339.648 266.221L169.824 266.221Z" fill="#0B1E3F"/>
<path d="M339.647 262.824C339.647 285.126 335.255 307.209 326.72 327.813C318.186 348.417 305.676 367.138 289.907 382.908C274.137 398.678 255.416 411.187 234.812 419.721C214.208 428.256 192.125 432.648 169.823 432.648L169.823 262.824L339.647 262.824Z" fill="#0B1E3F"/>
<circle cx="94.644" cy="181.319" r="75.3559" fill="#0B1E3F"/>
</g>
<path d="M672.408 400H641.608L588.408 256H587.608L540.408 400H508.408L447.608 212.8H482.008L524.808 356.8H525.608L574.008 212.8H606.808L656.008 356.8H656.808L699.208 212.8H732.808L672.408 400ZM770.892 212.8H802.092V400H770.892V212.8ZM763.692 139.6C763.692 133.467 765.826 128.133 770.092 123.6C774.626 119.067 780.092 116.8 786.492 116.8C792.892 116.8 798.226 119.067 802.492 123.6C807.026 128.133 809.292 133.467 809.292 139.6C809.292 146.267 807.159 151.733 802.892 156C798.626 160.267 793.159 162.4 786.492 162.4C779.826 162.4 774.359 160.267 770.092 156C765.826 151.733 763.692 146.267 763.692 139.6ZM868.186 350.8C874.319 358.533 880.986 364.667 888.186 369.2C895.653 373.733 904.986 376 916.186 376C920.986 376 925.786 375.467 930.586 374.4C935.653 373.333 940.186 371.6 944.186 369.2C948.186 366.8 951.386 363.867 953.786 360.4C956.186 356.667 957.386 352.267 957.386 347.2C957.386 342.133 956.186 338 953.786 334.8C951.653 331.6 948.719 328.933 944.986 326.8C941.253 324.4 936.986 322.533 932.186 321.2C927.386 319.867 922.453 318.667 917.386 317.6C908.586 315.733 900.186 313.6 892.186 311.2C884.186 308.8 877.119 305.733 870.986 302C865.119 298 860.319 292.933 856.586 286.8C853.119 280.667 851.386 272.8 851.386 263.2C851.386 254.133 853.386 246.133 857.386 239.2C861.386 232.267 866.719 226.533 873.386 222C880.053 217.467 887.519 214 895.786 211.6C904.053 209.2 912.586 208 921.386 208C934.719 208 946.986 210.667 958.186 216C969.653 221.333 978.586 230 984.986 242L958.986 259.2C954.986 252.533 949.653 247.2 942.986 243.2C936.586 238.933 928.719 236.8 919.386 236.8C915.119 236.8 910.719 237.333 906.186 238.4C901.919 239.467 898.053 241.067 894.586 243.2C891.119 245.333 888.186 248.133 885.786 251.6C883.653 254.8 882.586 258.533 882.586 262.8C882.586 266.8 883.786 270.267 886.186 273.2C888.853 275.867 892.319 278.267 896.586 280.4C901.119 282.533 906.186 284.4 911.786 286C917.653 287.6 923.653 288.933 929.786 290C938.053 291.6 945.919 293.733 953.386 296.4C960.853 298.8 967.386 302.133 972.986 306.4C978.586 310.667 982.986 316 986.186 322.4C989.386 328.8 990.986 336.667 990.986 346C990.986 356.667 988.853 365.733 984.586 373.2C980.319 380.667 974.586 386.8 967.386 391.6C960.453 396.133 952.453 399.467 943.386 401.6C934.586 403.733 925.519 404.8 916.186 404.8C900.186 404.8 886.319 402.4 874.586 397.6C863.119 392.533 852.719 383.333 843.386 370L868.186 350.8ZM1201.7 366C1190.5 380.4 1178.23 390.533 1164.9 396.4C1151.57 402 1136.1 404.8 1118.5 404.8C1103.83 404.8 1090.63 402.267 1078.9 397.2C1067.17 391.867 1057.17 384.8 1048.9 376C1040.9 367.2 1034.63 356.8 1030.1 344.8C1025.83 332.8 1023.7 320 1023.7 306.4C1023.7 292 1026.1 278.8 1030.9 266.8C1035.7 254.533 1042.37 244.133 1050.9 235.6C1059.43 226.8 1069.57 220 1081.3 215.2C1093.03 210.4 1105.83 208 1119.7 208C1132.77 208 1144.77 210.267 1155.7 214.8C1166.63 219.067 1175.97 225.467 1183.7 234C1191.7 242.267 1197.83 252.533 1202.1 264.8C1206.37 276.8 1208.5 290.533 1208.5 306V316H1057.3C1057.83 324 1059.7 331.733 1062.9 339.2C1066.37 346.4 1070.77 352.8 1076.1 358.4C1081.43 363.733 1087.7 368 1094.9 371.2C1102.1 374.4 1109.97 376 1118.5 376C1132.1 376 1143.57 373.6 1152.9 368.8C1162.23 364 1170.63 356.933 1178.1 347.6L1201.7 366ZM1174.9 289.6C1174.37 273.6 1169.17 260.8 1159.3 251.2C1149.43 241.6 1135.83 236.8 1118.5 236.8C1101.17 236.8 1087.17 241.6 1076.5 251.2C1065.83 260.8 1059.43 273.6 1057.3 289.6H1174.9ZM1272.76 239.2H1231.96V212.8H1272.76V170.8C1272.76 159.333 1273.83 148.933 1275.96 139.6C1278.1 130 1281.7 121.733 1286.76 114.8C1292.1 107.867 1299.03 102.533 1307.56 98.8C1316.1 94.8 1326.63 92.8 1339.16 92.8C1343.16 92.8 1347.43 93.2 1351.96 94C1356.5 94.8 1360.23 96 1363.16 97.6L1358.76 125.6C1351.3 122.933 1344.23 121.6 1337.56 121.6C1329.56 121.6 1323.3 123.067 1318.76 126C1314.23 128.667 1310.76 132.533 1308.36 137.6C1306.23 142.4 1304.9 148.267 1304.36 155.2C1304.1 162.133 1303.96 169.6 1303.96 177.6V212.8H1349.56V239.2H1303.96V400H1272.76V239.2ZM1378.36 97.6H1409.56V400H1378.36V97.6ZM1460.81 306.4C1460.81 291.733 1463.34 278.4 1468.41 266.4C1473.47 254.4 1480.41 244.133 1489.21 235.6C1498.01 226.8 1508.54 220 1520.81 215.2C1533.07 210.4 1546.41 208 1560.81 208C1575.21 208 1588.54 210.4 1600.81 215.2C1613.07 220 1623.61 226.8 1632.41 235.6C1641.21 244.133 1648.14 254.4 1653.21 266.4C1658.27 278.4 1660.81 291.733 1660.81 306.4C1660.81 321.067 1658.27 334.4 1653.21 346.4C1648.14 358.4 1641.21 368.8 1632.41 377.6C1623.61 386.133 1613.07 392.8 1600.81 397.6C1588.54 402.4 1575.21 404.8 1560.81 404.8C1546.41 404.8 1533.07 402.4 1520.81 397.6C1508.54 392.8 1498.01 386.133 1489.21 377.6C1480.41 368.8 1473.47 358.4 1468.41 346.4C1463.34 334.4 1460.81 321.067 1460.81 306.4ZM1494.41 306.4C1494.41 316.267 1495.87 325.467 1498.81 334C1502.01 342.267 1506.54 349.6 1512.41 356C1518.27 362.133 1525.21 367.067 1533.21 370.8C1541.47 374.267 1550.67 376 1560.81 376C1570.94 376 1580.01 374.267 1588.01 370.8C1596.27 367.067 1603.34 362.133 1609.21 356C1615.07 349.6 1619.47 342.267 1622.41 334C1625.61 325.467 1627.21 316.267 1627.21 306.4C1627.21 296.533 1625.61 287.467 1622.41 279.2C1619.47 270.667 1615.07 263.333 1609.21 257.2C1603.34 250.8 1596.27 245.867 1588.01 242.4C1580.01 238.667 1570.94 236.8 1560.81 236.8C1550.67 236.8 1541.47 238.667 1533.21 242.4C1525.21 245.867 1518.27 250.8 1512.41 257.2C1506.54 263.333 1502.01 270.667 1498.81 279.2C1495.87 287.467 1494.41 296.533 1494.41 306.4ZM1909.91 400H1879.11L1825.91 256H1825.11L1777.91 400H1745.91L1685.11 212.8H1719.51L1762.31 356.8H1763.11L1811.51 212.8H1844.31L1893.51 356.8H1894.31L1936.71 212.8H1970.31L1909.91 400Z" fill="#0B1E3F"/>
<defs>
<filter id="filter0_i_1044_3458" x="0" y="93" width="348.894" height="345.001" filterUnits="userSpaceOnUse" color-interpolation-filters="sRGB">
<feFlood flood-opacity="0" result="BackgroundImageFix"/>
<feBlend mode="normal" in="SourceGraphic" in2="BackgroundImageFix" result="shape"/>
<feColorMatrix in="SourceAlpha" type="matrix" values="0 0 0 0 0 0 0 0 0 0 0 0 0 0 0 0 0 0 127 0" result="hardAlpha"/>
<feOffset dy="1.94641"/>
<feGaussianBlur stdDeviation="0.973204"/>
<feComposite in2="hardAlpha" operator="arithmetic" k2="-1" k3="1"/>
<feColorMatrix type="matrix" values="0 0 0 0 0 0 0 0 0 0 0 0 0 0 0 0 0 0 0.25 0"/>
<feBlend mode="normal" in2="shape" result="effect1_innerShadow_1044_3458"/>
</filter>
<clipPath id="clip0_1044_3458">
<rect width="348.894" height="343.054" fill="white" transform="translate(0 93)"/>
</clipPath>
</defs>
</svg>
